<svg xmlns="http://www.w3.org/2000/svg" viewBox="0 0 231.96 215.97"><defs><style>.cls-1{fill:#3cbaee;}.cls-2{fill:#f46832;}.cls-3{fill:#f8f8f5;}.cls-4,.cls-7{stroke:#000;stroke-miterlimit:10;}.cls-5{fill:#2e92bb;}.cls-6{fill:#fff;}.cls-7{fill:none;}</style></defs><title>Asset 5</title><g id="Layer_2" data-name="Layer 2"><g id="Capa_13" data-name="Capa 13"><path class="cls-1" d="M116,60S86,29,53,25,22,0,22,0a55.62,55.62,0,0,0-4.5,19A64,64,0,0,0,19,35c.18.76-7.77,8-12,17C2.2,62.16,1.14,74.29,1,76c-6.87,64.79,25.36,101.68,25.36,101.68C54.71,210.75,95.63,215.59,115.5,216v0h1v0c19.87-.36,60.8-5.2,89.18-38.27,0,0,32.23-36.89,25.36-101.68-.18-1.71-1.24-13.84-6-24-4.23-9-12.18-16.24-12-17a64,64,0,0,0,1.5-16A55.62,55.62,0,0,0,210,0s2,21-31,25-63,35-63,35"/><polygon class="cls-2" points="116.46 179.84 69.79 133.17 97.96 106 138.96 106 165.13 131.17 116.46 179.84"/><circle class="cls-3" cx="172.46" cy="102.5" r="54.5"/><circle class="cls-3" cx="59.46" cy="102.5" r="54.5"/><circle class="cls-4" cx="62.46" cy="102.5" r="40.5"/><circle class="cls-4" cx="172.46" cy="102.5" r="40.5"/><path class="cls-5" d="M26,36s5-6,11-7c0,0-12-7-14-17C23,12,18,19,26,36Z"/><path class="cls-5" d="M206.42,37s-5-6-11-7c0,0,12-7,14-17C209.42,13,214.42,20,206.42,37Z"/><path class="cls-6" d="M76.08,65.41a19.5,19.5,0,1,0,24.29,25A39,39,0,0,0,76.08,65.41Z"/><path class="cls-6" d="M188.08,65.41a19.5,19.5,0,1,0,24.29,25A39,39,0,0,0,188.08,65.41Z"/><circle class="cls-7" cx="172.46" cy="102.5" r="40.5"/><circle class="cls-7" cx="62.46" cy="102.5" r="40.5"/></g></g></svg>